# Blender v2.93.4 OBJ File: 'ChessKing.blend'
# www.blender.org
mtllib ChessKing.mtl
o White_King_Cylinder.006
v -0.030399 9.842405 -0.055864
v -0.042991 9.763403 -0.079003
v -0.000000 9.842405 -0.079003
v -0.000000 9.763403 -0.111727
v 0.030399 9.842405 -0.055864
v 0.042991 9.763403 -0.079003
v 0.042991 9.842405 -0.000000
v 0.060798 9.763403 -0.000000
v -0.000000 9.875130 0.000000
v 0.030399 9.842405 0.055863
v 0.042991 9.763403 0.079003
v -0.000000 9.842405 0.079003
v -0.000000 9.763403 0.111727
v -0.030399 9.842405 0.055863
v -0.042991 9.763403 0.079003
v -0.042991 9.842405 -0.000000
v -0.060798 9.763403 -0.000000
v 0.082722 9.193958 0.152016
v 0.082722 9.497992 0.152016
v -0.082722 9.193958 0.152016
v -0.082722 9.497992 0.152016
v 0.082722 9.193958 -0.152016
v 0.082722 9.497992 -0.152016
v -0.082722 9.193958 -0.152016
v -0.082722 9.497992 -0.152016
v -0.082722 9.573999 -0.352016
v -0.082722 9.117950 -0.352016
v 0.082722 9.117950 -0.352016
v 0.082722 9.573999 -0.352016
v 0.082722 9.697990 0.228025
v -0.082722 9.697990 0.228025
v -0.082722 9.697990 -0.228025
v 0.082722 9.697990 -0.228025
v -0.082722 9.117950 0.352016
v 0.082722 9.117950 0.352016
v 0.082722 9.573999 0.352016
v -0.082722 9.573999 0.352016
v -0.082722 9.096619 -0.152016
v -0.082722 9.027359 -0.152016
v -0.082722 9.027359 0.152016
v -0.082722 9.096619 0.152016
v 0.082722 9.027359 0.152016
v 0.082722 9.096619 0.152016
v 0.082722 9.096619 -0.152016
v 0.082722 9.027359 -0.152016
v -0.098717 9.061989 -0.181410
v -0.098717 9.061989 0.181410
v 0.098717 9.061989 0.181410
v 0.098717 9.061989 -0.181410
v -0.175900 8.927000 -0.175899
v -0.248761 8.792632 -0.248759
v -0.175900 8.658263 -0.175899
v -0.000000 8.927000 -0.248759
v -0.000000 8.792632 -0.351799
v -0.000000 8.658263 -0.248759
v 0.175900 8.927000 -0.175899
v 0.248760 8.792632 -0.248759
v 0.175900 8.658263 -0.175899
v 0.248760 8.927000 0.000001
v 0.351800 8.792632 0.000001
v 0.248760 8.658263 0.000001
v 0.175900 8.927000 0.175901
v 0.248760 8.792632 0.248761
v 0.175900 8.658263 0.175901
v -0.000000 8.927000 0.248761
v -0.000000 8.792632 0.351801
v -0.000000 8.658263 0.248761
v -0.175900 8.927000 0.175901
v -0.248761 8.792632 0.248761
v -0.175900 8.658263 0.175901
v -0.248761 8.927000 0.000001
v -0.351800 8.792632 0.000001
v -0.248761 8.658263 0.000001
v -2.250000 0.002923 0.000000
v -1.027755 2.006182 -0.000000
v -1.590990 0.002923 -1.590990
v -0.726732 2.006182 -0.726732
v -0.000000 0.002923 -2.250000
v -0.000000 2.006182 -1.027755
v 1.590990 0.002923 -1.590990
v 0.726732 2.006182 -0.726732
v 2.250000 0.002923 0.000001
v 1.027754 2.006182 0.000000
v 1.590989 0.002923 1.590991
v 0.726731 2.006182 0.726732
v -0.000002 0.002923 2.250000
v -0.000001 2.006182 1.027754
v -1.590992 0.002923 1.590988
v -0.726733 2.006182 0.726731
v -1.807533 0.766964 0.000000
v -1.278119 0.766964 -1.278119
v -0.000000 0.766964 -1.807532
v 1.278118 0.766964 -1.278118
v 1.807532 0.766964 0.000000
v 1.278118 0.766964 1.278119
v -0.000002 0.766964 1.807533
v -1.278120 0.766964 1.278117
v -2.083272 1.249205 0.000000
v -1.473096 1.249206 -1.473096
v -0.000000 1.249206 -2.083272
v 1.473096 1.249206 -1.473096
v 2.083272 1.249205 0.000001
v 1.473095 1.249205 1.473097
v -0.000002 1.249206 2.083272
v -1.473098 1.249206 1.473094
v -1.482220 1.842760 -0.000000
v -1.048088 1.842760 -1.048088
v -0.000000 1.842760 -1.482220
v 1.048087 1.842760 -1.048088
v 1.482220 1.842760 0.000000
v 1.048087 1.842760 1.048088
v -0.000002 1.842760 1.482220
v -1.048089 1.842760 1.048086
v -0.939384 6.444224 0.000001
v -0.664245 6.444224 -0.664244
v -0.000001 6.444224 -0.939383
v 0.664244 6.444224 -0.664244
v 0.939384 6.444224 0.000001
v 0.664244 6.444224 0.664246
v -0.000001 6.444224 0.939385
v -0.664246 6.444224 0.664245
v 0.565138 6.092010 -0.565138
v -0.799227 6.092010 0.000001
v -0.565139 6.092010 0.565138
v 0.799226 6.092010 0.000001
v -0.565139 6.092010 -0.565138
v 0.565138 6.092010 0.565139
v -0.000001 6.092010 -0.799226
v -0.000001 6.092010 0.799227
v 0.999277 6.256662 -0.999276
v -1.413191 6.256662 0.000001
v -0.999278 6.256662 0.999277
v 1.413191 6.256662 0.000001
v -0.999277 6.256662 -0.999276
v 0.999276 6.256662 0.999278
v -0.000000 6.256662 -1.413190
v -0.000002 6.256662 1.413192
v -0.512110 4.421140 -0.512109
v -0.000001 4.421140 -0.724231
v 0.512109 4.421140 -0.512109
v 0.724231 4.421140 0.000000
v 0.512109 4.421140 0.512110
v -0.000001 4.421140 0.724232
v -0.512110 4.421140 0.512109
v -0.724232 4.421140 0.000000
v 0.559933 6.732483 -0.559933
v -0.000001 6.732483 -0.791865
v -0.559934 6.732483 -0.559933
v -0.791866 6.732483 0.000001
v -0.559935 6.732483 0.559934
v 0.559933 6.732483 0.559935
v 0.791865 6.732483 0.000001
v -0.000001 6.732483 0.791866
v -0.000001 6.547519 1.034279
v 0.731344 6.547519 0.731346
v -0.000001 6.547519 -1.034277
v -0.731345 6.547519 -0.731344
v -1.034278 6.547519 0.000001
v -0.731346 6.547519 0.731345
v 0.731344 6.547519 -0.731344
v 1.034277 6.547519 0.000001
v -0.582277 7.082894 0.582276
v 0.582275 7.082894 -0.582275
v -0.823463 7.082894 0.000001
v 0.823462 7.082894 0.000001
v 0.582275 7.082894 0.582277
v -0.000001 7.082894 0.823463
v -0.582276 7.082894 -0.582275
v -0.000001 7.082894 -0.823461
v -0.000001 7.022133 0.730462
v 0.730461 7.022133 0.000001
v 0.516513 7.022133 0.516515
v -0.516515 7.022133 0.516514
v -0.730461 7.022133 0.000001
v -0.516514 7.022133 -0.516513
v -0.000001 7.022133 -0.730460
v 0.516513 7.022133 -0.516513
v -0.518823 7.143656 -0.518822
v -0.000001 7.143656 0.733726
v -0.000001 7.143656 -0.733725
v 0.518822 7.143656 -0.518822
v 0.733725 7.143656 0.000001
v 0.518822 7.143656 0.518824
v -0.518824 7.143656 0.518823
v -0.733726 7.143656 0.000001
v -0.518824 7.317745 0.518823
v -0.000001 7.317745 0.733726
v 0.518822 7.317745 0.518824
v -0.000001 7.317745 -0.733725
v -0.518823 7.317745 -0.518821
v -0.733726 7.317745 0.000001
v 0.733725 7.317745 0.000001
v 0.518822 7.317745 -0.518821
v -0.682225 8.490822 0.682224
v -0.000001 8.490822 0.964811
v 0.682223 8.490822 0.682225
v -0.000000 8.490822 -0.964810
v -0.682224 8.490822 -0.682223
v -0.964811 8.490822 0.000001
v 0.964810 8.490822 0.000001
v 0.682224 8.490822 -0.682223
v -0.151975 8.627720 0.000001
v -0.107463 8.627720 -0.107461
v -0.107463 8.627720 0.107463
v -0.000000 8.627720 -0.151974
v -0.000000 8.627720 0.151976
v 0.107462 8.627720 0.107463
v 0.107462 8.627720 -0.107461
v 0.151974 8.627720 0.000001
v -0.872879 8.158420 0.872877
v -0.872878 8.158420 -0.872876
v -1.234435 8.158420 0.000001
v 0.872877 8.158420 0.872879
v -0.000001 8.158420 1.234436
v -0.000000 8.158420 -1.234434
v 0.872877 8.158420 -0.872876
v 1.234434 8.158420 0.000001
v -0.082722 8.934558 0.152016
v -0.082722 8.934557 -0.152016
v -0.082722 8.948646 0.000001
v -0.000000 8.948647 0.152016
v 0.082722 8.934557 0.152016
v 0.082722 8.934557 -0.152016
v -0.000000 8.948645 -0.152016
v 0.082722 8.948646 0.000001
v -0.032565 9.697990 0.059844
v -0.000000 9.697990 0.084633
v 0.032565 9.697990 0.059844
v -0.046054 9.697990 -0.000000
v 0.046054 9.697990 -0.000000
v 0.032565 9.697990 -0.059844
v -0.032565 9.697990 -0.059844
v -0.000000 9.697990 -0.084633
vn -0.9528 0.2148 -0.2148
vn -0.6001 0.7884 -0.1353
vn -0.5752 0.3130 -0.7557
vn -0.2797 0.8870 -0.3674
vn 0.5752 0.3130 -0.7557
vn 0.2797 0.8870 -0.3674
vn 0.9528 0.2148 -0.2148
vn 0.6001 0.7884 -0.1353
vn 0.6001 0.7884 0.1353
vn 0.9528 0.2148 0.2148
vn 0.2797 0.8870 0.3674
vn 0.5752 0.3130 0.7557
vn -0.2797 0.8870 0.3674
vn -0.5752 0.3130 0.7557
vn -0.6001 0.7884 0.1353
vn -0.9528 0.2148 0.2148
vn 0.0000 0.9348 -0.3553
vn -1.0000 0.0000 0.0000
vn 1.0000 0.0000 -0.0000
vn 0.0000 -0.3553 0.9348
vn 0.0000 0.0000 -1.0000
vn 0.0000 -0.9348 0.3552
vn 0.0000 0.9348 0.3553
vn 0.0000 1.0000 0.0000
vn 0.0000 -0.3553 -0.9348
vn 0.0000 0.0000 1.0000
vn 0.0000 -0.9348 -0.3552
vn 0.9078 -0.4193 -0.0000
vn 0.0000 -0.6471 -0.7624
vn 0.0000 -0.6471 0.7624
vn -0.9078 -0.4193 0.0000
vn -0.9078 0.4193 -0.0000
vn 0.0000 0.6471 0.7624
vn 0.0000 0.6471 -0.7624
vn 0.9078 0.4193 0.0000
vn -0.7539 0.5781 -0.3123
vn -0.7539 -0.5781 -0.3123
vn -0.1057 0.9922 -0.0661
vn -0.3123 -0.5781 -0.7539
vn -0.0989 0.9819 -0.1613
vn -0.3123 0.5781 -0.7539
vn 0.3123 0.5781 -0.7539
vn 0.3123 -0.5781 -0.7539
vn 0.0989 0.9819 -0.1613
vn 0.7539 0.5781 -0.3123
vn 0.7539 -0.5781 -0.3123
vn 0.1057 0.9922 -0.0661
vn 0.7539 0.5781 0.3123
vn 0.7539 -0.5781 0.3123
vn 0.1057 0.9922 0.0661
vn 0.3123 0.5781 0.7539
vn 0.3123 -0.5781 0.7539
vn 0.0989 0.9819 0.1613
vn -0.3123 0.5781 0.7539
vn -0.3123 -0.5781 0.7539
vn -0.0989 0.9819 0.1613
vn -0.1057 0.9922 0.0661
vn -0.7539 0.5781 0.3123
vn -0.7539 -0.5781 0.3123
vn 0.8169 -0.4671 -0.3384
vn -0.9231 -0.0414 0.3824
vn -0.3374 0.4718 0.8146
vn 0.3384 -0.4671 0.8169
vn 0.3351 0.9319 0.1388
vn -0.8169 -0.4671 -0.3384
vn -0.3824 -0.0414 0.9231
vn 0.1067 -0.9604 0.2575
vn -0.1067 -0.9604 0.2575
vn 0.2795 0.6832 0.6747
vn 0.6747 0.6832 0.2795
vn -0.3351 0.9319 -0.1388
vn 0.1388 0.9319 -0.3351
vn -0.9231 -0.0414 -0.3824
vn -0.3639 0.9192 -0.1507
vn 0.3824 -0.0414 -0.9231
vn 0.3351 0.9319 -0.1388
vn -0.1067 -0.9604 -0.2575
vn 0.2575 -0.9604 -0.1067
vn 0.3374 0.4718 -0.8146
vn -0.6747 0.6832 0.2795
vn -0.2575 -0.9604 0.1067
vn 0.1507 0.9192 0.3639
vn -0.1507 0.9192 0.3639
vn 0.2575 -0.9604 0.1067
vn 0.3824 -0.0414 0.9231
vn 0.8146 0.4718 0.3374
vn 0.9231 -0.0414 0.3824
vn -0.3639 0.9192 0.1507
vn -0.8146 0.4718 -0.3374
vn -0.1388 0.9319 0.3351
vn -0.3351 0.9319 0.1388
vn -0.8169 -0.4671 0.3384
vn -0.3384 -0.4671 0.8169
vn -0.2795 0.6832 0.6747
vn -0.8146 0.4718 0.3374
vn 0.3374 0.4718 0.8146
vn 0.1388 0.9319 0.3351
vn 0.8169 -0.4671 0.3384
vn 0.3639 0.9192 0.1507
vn -0.6747 0.6832 -0.2795
vn 0.6747 0.6832 -0.2795
vn -0.1507 0.9192 -0.3639
vn 0.3639 0.9192 -0.1507
vn -0.3384 -0.4671 -0.8169
vn 0.8146 0.4718 -0.3374
vn 0.3384 -0.4671 -0.8169
vn 0.9177 0.1153 -0.3801
vn -0.1388 0.9319 -0.3351
vn 0.1507 0.9192 -0.3639
vn 0.0000 -1.0000 -0.0000
vn -0.2795 0.6832 -0.6747
vn 0.2795 0.6832 -0.6747
vn -0.2575 -0.9604 -0.1067
vn -0.3374 0.4718 -0.8146
vn 0.1067 -0.9604 -0.2575
vn -0.3824 -0.0414 -0.9231
vn 0.2437 0.7710 0.5883
vn -0.3801 0.1153 -0.9177
vn 0.9231 -0.0414 -0.3824
vn 0.9177 0.1153 0.3801
vn 0.3801 0.1153 0.9177
vn 0.3801 0.1153 -0.9177
vn -0.9177 0.1153 -0.3801
vn -0.3801 0.1153 0.9177
vn -0.9177 0.1153 0.3801
vn -0.5334 -0.8165 0.2210
vn -0.2437 0.7710 -0.5883
vn -0.5883 0.7710 0.2437
vn 0.2437 0.7710 -0.5883
vn -0.5883 0.7710 -0.2437
vn -0.2437 0.7710 0.5883
vn 0.5883 0.7710 -0.2437
vn 0.5883 0.7710 0.2437
vn 0.7044 -0.6471 0.2918
vn 0.7044 -0.6471 -0.2918
vn -0.2918 -0.6471 0.7044
vn -0.7044 -0.6471 -0.2918
vn 0.2918 -0.6471 -0.7044
vn -0.7044 -0.6471 0.2918
vn -0.2918 -0.6471 -0.7044
vn 0.2918 -0.6471 0.7044
vn -0.2210 -0.8165 -0.5334
vn 0.9067 0.1922 -0.3755
vn -0.3755 0.1922 0.9067
vn 0.2210 -0.8165 0.5334
vn -0.2210 -0.8165 0.5334
vn 0.3755 0.1922 -0.9067
vn 0.3755 0.1922 0.9067
vn -0.9067 0.1922 -0.3755
vn 0.2262 0.8066 -0.5461
vn -0.3755 0.1922 -0.9067
vn -0.9067 0.1922 0.3755
vn 0.5461 0.8066 0.2262
vn -0.5334 -0.8165 -0.2210
vn 0.5334 -0.8165 0.2210
vn 0.9067 0.1922 0.3755
vn 0.5334 -0.8165 -0.2210
vn -0.5461 0.8066 0.2262
vn 0.2262 0.8066 0.5461
vn -0.2262 0.8066 -0.5461
vn 0.5461 0.8066 -0.2262
vn -0.9239 0.0000 -0.3827
vn -0.5461 0.8066 -0.2262
vn -0.2262 0.8066 0.5461
vn 0.2210 -0.8165 -0.5334
vn -0.7393 0.5997 0.3062
vn 0.9239 0.0000 0.3827
vn 0.3827 0.0000 0.9239
vn -0.9239 0.0000 0.3827
vn 0.9239 0.0000 -0.3827
vn -0.3827 0.0000 -0.9239
vn 0.3827 0.0000 -0.9239
vn -0.3827 -0.0000 0.9239
vn 0.7393 0.5997 0.3062
vn 0.7393 0.5997 -0.3062
vn -0.7393 0.5997 -0.3062
vn -0.1237 -0.9463 -0.2986
vn 0.0939 0.9694 0.2267
vn 0.1237 -0.9463 0.2986
vn -0.1237 -0.9463 0.2986
vn -0.2986 -0.9463 0.1237
vn -0.2267 0.9694 -0.0939
vn 0.1237 -0.9463 -0.2986
vn -0.2986 -0.9463 -0.1237
vn 0.0939 0.9694 -0.2267
vn 0.2986 -0.9463 0.1237
vn 0.2986 -0.9463 -0.1237
vn 0.2267 0.9694 0.0939
vn 0.8094 -0.4821 0.3353
vn -0.3353 -0.4821 0.8094
vn -0.3353 -0.4821 -0.8094
vn 0.8094 -0.4821 -0.3353
vn 0.3353 -0.4821 -0.8094
vn 0.3353 -0.4821 0.8094
vn -0.8094 -0.4821 -0.3353
vn -0.8094 -0.4821 0.3353
vn -0.3062 0.5997 0.7393
vn 0.3062 0.5997 -0.7393
vn 0.3062 0.5997 0.7393
vn -0.3062 0.5997 -0.7393
vn -0.2267 0.9694 0.0939
vn -0.0939 0.9694 -0.2267
vn 0.2267 0.9694 -0.0939
vn -0.0939 0.9694 0.2267
vn -0.5752 -0.3130 0.7557
vn -0.5752 -0.3130 -0.7557
vn -0.9528 -0.2148 -0.2148
vn 0.9528 -0.2148 -0.2148
vn -0.9528 -0.2148 0.2148
vn 0.5752 -0.3130 0.7557
vn 0.5752 -0.3130 -0.7557
vn 0.9528 -0.2148 0.2148
usemtl White_Pieces
s off
f 17//1 16//1 1//1 2//1
f 16//2 9//2 1//2
f 2//3 1//3 3//3 4//3
f 1//4 9//4 3//4
f 4//5 3//5 5//5 6//5
f 3//6 9//6 5//6
f 6//7 5//7 7//7 8//7
f 5//8 9//8 7//8
f 7//9 9//9 10//9
f 8//10 7//10 10//10 11//10
f 10//11 9//11 12//11
f 11//12 10//12 12//12 13//12
f 12//13 9//13 14//13
f 13//14 12//14 14//14 15//14
f 14//15 9//15 16//15
f 15//16 14//16 16//16 17//16
f 19//17 21//17 37//17 36//17
f 20//18 21//18 25//18 24//18
f 23//19 22//19 28//19 29//19
f 22//19 23//19 19//19 18//19
f 40//18 39//18 219//18 220//18 218//18
f 21//20 19//20 30//20 31//20
f 27//21 26//21 29//21 28//21
f 22//22 24//22 27//22 28//22
f 25//23 23//23 29//23 26//23
f 24//18 25//18 26//18 27//18
f 32//24 233//24 231//24 230//24 228//24 227//24 31//24 30//24 33//24
f 19//19 23//19 33//19 30//19
f 25//18 21//18 31//18 32//18
f 23//25 25//25 32//25 33//25
f 35//26 36//26 37//26 34//26
f 20//27 18//27 35//27 34//27
f 21//18 20//18 34//18 37//18
f 18//19 19//19 36//19 35//19
f 42//26 40//26 218//26 221//26 222//26
f 39//21 45//21 223//21 224//21 219//21
f 45//19 42//19 222//19 225//19 223//19
f 22//19 18//19 43//19 44//19
f 42//28 45//28 49//28 48//28
f 24//21 22//21 44//21 38//21
f 45//29 39//29 46//29 49//29
f 18//26 20//26 41//26 43//26
f 40//30 42//30 48//30 47//30
f 20//18 24//18 38//18 41//18
f 39//31 40//31 47//31 46//31
f 41//32 38//32 46//32 47//32
f 43//33 41//33 47//33 48//33
f 38//34 44//34 49//34 46//34
f 44//35 43//35 48//35 49//35
f 72//36 71//36 50//36 51//36
f 73//37 72//37 51//37 52//37
f 71//38 220//38 219//38 50//38
f 52//39 51//39 54//39 55//39
f 50//40 219//40 224//40 53//40
f 51//41 50//41 53//41 54//41
f 54//42 53//42 56//42 57//42
f 55//43 54//43 57//43 58//43
f 53//44 224//44 223//44 56//44
f 57//45 56//45 59//45 60//45
f 58//46 57//46 60//46 61//46
f 56//47 223//47 225//47 59//47
f 60//48 59//48 62//48 63//48
f 61//49 60//49 63//49 64//49
f 59//50 225//50 222//50 62//50
f 63//51 62//51 65//51 66//51
f 64//52 63//52 66//52 67//52
f 62//53 222//53 221//53 65//53
f 66//54 65//54 68//54 69//54
f 67//55 66//55 69//55 70//55
f 65//56 221//56 218//56 68//56
f 68//57 218//57 220//57 71//57
f 69//58 68//58 71//58 72//58
f 70//59 69//59 72//59 73//59
f 102//60 94//60 93//60 101//60
f 144//61 124//61 123//61 145//61
f 86//62 96//62 97//62 88//62
f 95//63 103//63 104//63 96//63
f 110//64 83//64 85//64 111//64
f 90//65 98//65 99//65 91//65
f 143//66 129//66 124//66 144//66
f 127//67 135//67 137//67 129//67
f 129//68 137//68 132//68 124//68
f 103//69 111//69 112//69 104//69
f 102//70 110//70 111//70 103//70
f 106//71 75//71 77//71 107//71
f 108//72 79//72 81//72 109//72
f 145//73 123//73 126//73 138//73
f 131//74 114//74 115//74 134//74
f 139//75 128//75 122//75 140//75
f 83//76 110//76 109//76 81//76
f 126//77 134//77 136//77 128//77
f 133//78 125//78 122//78 130//78
f 78//79 92//79 93//79 80//79
f 105//80 113//80 106//80 98//80
f 124//81 132//81 131//81 123//81
f 135//82 119//82 120//82 137//82
f 137//83 120//83 121//83 132//83
f 125//84 133//84 135//84 127//84
f 142//85 127//85 129//85 143//85
f 82//86 94//86 95//86 84//86
f 141//87 125//87 127//87 142//87
f 132//88 121//88 114//88 131//88
f 74//89 90//89 91//89 76//89
f 112//90 87//90 89//90 113//90
f 113//91 89//91 75//91 106//91
f 97//92 105//92 98//92 90//92
f 96//93 104//93 105//93 97//93
f 104//94 112//94 113//94 105//94
f 88//95 97//95 90//95 74//95
f 84//96 95//96 96//96 86//96
f 111//97 85//97 87//97 112//97
f 94//98 102//98 103//98 95//98
f 133//99 118//99 119//99 135//99
f 98//100 106//100 107//100 99//100
f 110//101 102//101 101//101 109//101
f 134//102 115//102 116//102 136//102
f 118//103 133//103 130//103 117//103
f 91//104 99//104 100//104 92//104
f 94//105 82//105 80//105 93//105
f 92//106 100//106 101//106 93//106
f 141//107 83//107 81//107 140//107
f 107//108 77//108 79//108 108//108
f 136//109 116//109 117//109 130//109
f 78//110 80//110 82//110 84//110 86//110 88//110 74//110 76//110
f 99//111 107//111 108//111 100//111
f 100//112 108//112 109//112 101//112
f 123//113 131//113 134//113 126//113
f 76//114 91//114 92//114 78//114
f 128//115 136//115 130//115 122//115
f 138//116 126//116 128//116 139//116
f 155//117 151//117 153//117 154//117
f 77//118 138//118 139//118 79//118
f 125//119 141//119 140//119 122//119
f 83//120 141//120 142//120 85//120
f 85//121 142//121 143//121 87//121
f 79//122 139//122 140//122 81//122
f 75//123 145//123 138//123 77//123
f 87//124 143//124 144//124 89//124
f 89//125 144//125 145//125 75//125
f 173//126 162//126 164//126 174//126
f 157//127 148//127 147//127 156//127
f 159//128 150//128 149//128 158//128
f 156//129 147//129 146//129 160//129
f 158//130 149//130 148//130 157//130
f 154//131 153//131 150//131 159//131
f 160//132 146//132 152//132 161//132
f 161//133 152//133 151//133 155//133
f 118//134 161//134 155//134 119//134
f 117//135 160//135 161//135 118//135
f 120//136 154//136 159//136 121//136
f 114//137 158//137 157//137 115//137
f 116//138 156//138 160//138 117//138
f 121//139 159//139 158//139 114//139
f 115//140 157//140 156//140 116//140
f 119//141 155//141 154//141 120//141
f 175//142 168//142 169//142 176//142
f 146//143 177//143 171//143 152//143
f 153//144 170//144 173//144 150//144
f 172//145 166//145 167//145 170//145
f 170//146 167//146 162//146 173//146
f 147//147 176//147 177//147 146//147
f 151//148 172//148 170//148 153//148
f 149//149 174//149 175//149 148//149
f 169//150 180//150 181//150 163//150
f 148//151 175//151 176//151 147//151
f 150//152 173//152 174//152 149//152
f 165//153 182//153 183//153 166//153
f 174//154 164//154 168//154 175//154
f 171//155 165//155 166//155 172//155
f 152//156 171//156 172//156 151//156
f 177//157 163//157 165//157 171//157
f 162//158 184//158 185//158 164//158
f 166//159 183//159 179//159 167//159
f 168//160 178//160 180//160 169//160
f 163//161 181//161 182//161 165//161
f 178//162 185//162 191//162 190//162
f 164//163 185//163 178//163 168//163
f 167//164 179//164 184//164 162//164
f 176//165 169//165 163//165 177//165
f 199//166 212//166 210//166 194//166
f 183//167 182//167 192//167 188//167
f 179//168 183//168 188//168 187//168
f 185//169 184//169 186//169 191//169
f 182//170 181//170 193//170 192//170
f 180//171 178//171 190//171 189//171
f 181//172 180//172 189//172 193//172
f 184//173 179//173 187//173 186//173
f 196//174 213//174 217//174 200//174
f 200//175 217//175 216//175 201//175
f 198//176 211//176 212//176 199//176
f 205//177 203//177 52//177 55//177
f 67//178 195//178 196//178 64//178
f 206//179 207//179 64//179 67//179
f 204//180 206//180 67//180 70//180
f 202//181 204//181 70//181 73//181
f 52//182 198//182 199//182 73//182
f 208//183 205//183 55//183 58//183
f 203//184 202//184 73//184 52//184
f 58//185 201//185 197//185 55//185
f 207//186 209//186 61//186 64//186
f 209//187 208//187 58//187 61//187
f 64//188 196//188 200//188 61//188
f 188//189 192//189 217//189 213//189
f 186//190 187//190 214//190 210//190
f 189//191 190//191 211//191 215//191
f 192//192 193//192 216//192 217//192
f 193//193 189//193 215//193 216//193
f 187//194 188//194 213//194 214//194
f 190//195 191//195 212//195 211//195
f 191//196 186//196 210//196 212//196
f 194//197 210//197 214//197 195//197
f 201//198 216//198 215//198 197//198
f 195//199 214//199 213//199 196//199
f 197//200 215//200 211//200 198//200
f 73//201 199//201 194//201 70//201
f 55//202 197//202 198//202 52//202
f 61//203 200//203 201//203 58//203
f 70//204 194//204 195//204 67//204
f 31//24 227//24 226//24 229//24 232//24 233//24 32//24
f 226//205 227//205 13//205 15//205
f 233//206 232//206 2//206 4//206
f 232//207 229//207 17//207 2//207
f 230//208 231//208 6//208 8//208
f 229//209 226//209 15//209 17//209
f 227//210 228//210 11//210 13//210
f 231//211 233//211 4//211 6//211
f 228//212 230//212 8//212 11//212
